<mxfile host="Electron" agent="Mozilla/5.0 (Windows NT 10.0; Win64; x64) AppleWebKit/537.36 (KHTML, like Gecko) draw.io/27.0.9 Chrome/134.0.6998.205 Electron/35.4.0 Safari/537.36" version="27.0.9">
  <diagram name="第 1 页" id="uggXUsq7PMsy0nJZyUXR">
    <mxGraphModel dx="2431" dy="1413" grid="1" gridSize="10" guides="1" tooltips="1" connect="1" arrows="1" fold="1" page="1" pageScale="1" pageWidth="1169" pageHeight="1654" math="0" shadow="0">
      <root>
        <mxCell id="0" />
        <mxCell id="1" parent="0" />
        <mxCell id="J51PkWYAYMBCTwXNkuqa-1" value="" style="rounded=0;whiteSpace=wrap;html=1;fillColor=none;strokeColor=#6c8ebf;" parent="1" vertex="1">
          <mxGeometry x="350" y="30" width="640" height="890" as="geometry" />
        </mxCell>
        <mxCell id="J51PkWYAYMBCTwXNkuqa-2" value="&lt;div style=&quot;line-height: 10%;&quot;&gt;&lt;h1 style=&quot;line-height: 10%;&quot;&gt;&lt;font&gt;&lt;span style=&quot;font-size: 18px; line-height: 10%;&quot;&gt;中断节点图示（掌握）&lt;/span&gt;&lt;/font&gt;&lt;/h1&gt;&lt;/div&gt;" style="html=1;shadow=0;dashed=0;shape=mxgraph.bootstrap.rrect;rSize=5;strokeColor=#6c8ebf;strokeWidth=1;fillColor=#dae8fc;whiteSpace=wrap;align=center;verticalAlign=middle;spacingLeft=0;fontStyle=1;fontSize=14;spacing=5;" parent="1" vertex="1">
          <mxGeometry x="350" y="30" width="640" height="30" as="geometry" />
        </mxCell>
        <mxCell id="J51PkWYAYMBCTwXNkuqa-3" value="&lt;span style=&quot;font-size: 16px;&quot;&gt;// 顶级中断控制器：GIC&lt;/span&gt;" style="text;html=1;align=left;verticalAlign=middle;whiteSpace=wrap;rounded=0;dashed=1;fontSize=14;fillColor=none;" parent="1" vertex="1">
          <mxGeometry x="350" y="60" width="640" height="20" as="geometry" />
        </mxCell>
        <mxCell id="J51PkWYAYMBCTwXNkuqa-4" value="&lt;font style=&quot;font-size: 16px;&quot;&gt;&lt;span style=&quot;white-space: pre;&quot;&gt;&#x9;&lt;/span&gt;&lt;/font&gt;&lt;span style=&quot;font-size: 16px;&quot;&gt;reg = &amp;lt;0x0 0xfe600000 0x0 0x10000&amp;gt;;&lt;/span&gt;" style="text;html=1;align=left;verticalAlign=middle;whiteSpace=wrap;rounded=0;dashed=1;fontSize=14;fillColor=none;" parent="1" vertex="1">
          <mxGeometry x="350" y="120" width="640" height="20" as="geometry" />
        </mxCell>
        <mxCell id="J51PkWYAYMBCTwXNkuqa-5" value="&lt;span style=&quot;font-size: 16px;&quot;&gt;&lt;span style=&quot;white-space: pre;&quot;&gt;&#x9;&lt;/span&gt;&lt;b&gt;interrupt-controller;&amp;nbsp; &amp;nbsp; &amp;nbsp; &amp;nbsp; &amp;nbsp; &amp;nbsp; &amp;nbsp; &amp;nbsp; &amp;nbsp; &amp;nbsp; &amp;nbsp; &amp;nbsp; &amp;nbsp; &amp;nbsp; &amp;nbsp;&lt;span style=&quot;white-space: pre;&quot;&gt;&#x9;&lt;/span&gt;&lt;span style=&quot;white-space: pre;&quot;&gt;&#x9;&lt;/span&gt;&lt;span style=&quot;white-space: pre;&quot;&gt;&#x9;&lt;span style=&quot;white-space: pre;&quot;&gt;&#x9;&lt;/span&gt;&lt;/span&gt;// 标识为中断控制器&lt;/b&gt;&lt;/span&gt;" style="text;html=1;align=left;verticalAlign=middle;whiteSpace=wrap;rounded=0;dashed=1;fontSize=14;fillColor=#d5e8d4;strokeColor=none;" parent="1" vertex="1">
          <mxGeometry x="350" y="140" width="640" height="20" as="geometry" />
        </mxCell>
        <mxCell id="J51PkWYAYMBCTwXNkuqa-6" value="&lt;span style=&quot;font-size: 16px;&quot;&gt;};&lt;/span&gt;" style="text;html=1;align=left;verticalAlign=middle;whiteSpace=wrap;rounded=0;dashed=1;fontSize=14;fillColor=none;" parent="1" vertex="1">
          <mxGeometry x="350" y="180" width="640" height="20" as="geometry" />
        </mxCell>
        <mxCell id="J51PkWYAYMBCTwXNkuqa-7" value="" style="shape=table;startSize=0;container=1;collapsible=0;childLayout=tableLayout;fixedRows=1;rowLines=0;fontStyle=0;strokeColor=#6c8ebf;fontSize=16;fillColor=none;" parent="1" vertex="1">
          <mxGeometry x="1065" y="567" width="600" height="153" as="geometry" />
        </mxCell>
        <mxCell id="J51PkWYAYMBCTwXNkuqa-8" value="" style="shape=tableRow;horizontal=0;startSize=0;swimlaneHead=0;swimlaneBody=0;top=0;left=0;bottom=0;right=0;collapsible=0;dropTarget=0;fillColor=none;points=[[0,0.5],[1,0.5]];portConstraint=eastwest;strokeColor=#6c8ebf;fontSize=16;" parent="J51PkWYAYMBCTwXNkuqa-7" vertex="1">
          <mxGeometry width="600" height="40" as="geometry" />
        </mxCell>
        <mxCell id="J51PkWYAYMBCTwXNkuqa-9" value="&lt;b&gt;&lt;font style=&quot;color: light-dark(rgb(0, 0, 0), rgb(255, 255, 255));&quot;&gt;interrupt-parent&lt;/font&gt;&lt;/b&gt;" style="shape=partialRectangle;html=1;whiteSpace=wrap;connectable=0;fillColor=#f5f5f5;top=0;left=0;bottom=0;right=0;overflow=hidden;pointerEvents=1;strokeColor=#666666;fontSize=16;fontColor=#333333;" parent="J51PkWYAYMBCTwXNkuqa-8" vertex="1">
          <mxGeometry width="210" height="40" as="geometry">
            <mxRectangle width="210" height="40" as="alternateBounds" />
          </mxGeometry>
        </mxCell>
        <mxCell id="J51PkWYAYMBCTwXNkuqa-10" value="指定中断设备所属的中断控制器" style="shape=partialRectangle;html=1;whiteSpace=wrap;connectable=0;fillColor=none;top=0;left=0;bottom=0;right=0;align=left;spacingLeft=6;overflow=hidden;strokeColor=#6c8ebf;fontSize=16;" parent="J51PkWYAYMBCTwXNkuqa-8" vertex="1">
          <mxGeometry x="210" width="390" height="40" as="geometry">
            <mxRectangle width="390" height="40" as="alternateBounds" />
          </mxGeometry>
        </mxCell>
        <mxCell id="J51PkWYAYMBCTwXNkuqa-11" value="" style="shape=tableRow;horizontal=0;startSize=0;swimlaneHead=0;swimlaneBody=0;top=0;left=0;bottom=0;right=0;collapsible=0;dropTarget=0;fillColor=none;points=[[0,0.5],[1,0.5]];portConstraint=eastwest;strokeColor=#6c8ebf;fontSize=16;" parent="J51PkWYAYMBCTwXNkuqa-7" vertex="1">
          <mxGeometry y="40" width="600" height="73" as="geometry" />
        </mxCell>
        <mxCell id="J51PkWYAYMBCTwXNkuqa-12" value="&lt;b&gt;&lt;font style=&quot;color: light-dark(rgb(0, 0, 0), rgb(255, 255, 255));&quot;&gt;interrupts&lt;/font&gt;&lt;/b&gt;" style="shape=partialRectangle;html=1;whiteSpace=wrap;connectable=0;fillColor=#e1d5e7;top=0;left=0;bottom=0;right=0;overflow=hidden;pointerEvents=1;strokeColor=#9673a6;fontSize=16;" parent="J51PkWYAYMBCTwXNkuqa-11" vertex="1">
          <mxGeometry width="210" height="73" as="geometry">
            <mxRectangle width="210" height="73" as="alternateBounds" />
          </mxGeometry>
        </mxCell>
        <mxCell id="J51PkWYAYMBCTwXNkuqa-13" value="指定设备中断相关信息，如：&lt;br&gt;中断控制器类型、中断号、中断触发类型" style="shape=partialRectangle;html=1;whiteSpace=wrap;connectable=0;fillColor=none;top=0;left=0;bottom=0;right=0;align=left;spacingLeft=6;overflow=hidden;strokeColor=#6c8ebf;fontSize=16;" parent="J51PkWYAYMBCTwXNkuqa-11" vertex="1">
          <mxGeometry x="210" width="390" height="73" as="geometry">
            <mxRectangle width="390" height="73" as="alternateBounds" />
          </mxGeometry>
        </mxCell>
        <mxCell id="y_QmLa2hbLG9c_GjuO9h-4" value="" style="shape=tableRow;horizontal=0;startSize=0;swimlaneHead=0;swimlaneBody=0;top=0;left=0;bottom=0;right=0;collapsible=0;dropTarget=0;fillColor=none;points=[[0,0.5],[1,0.5]];portConstraint=eastwest;strokeColor=#6c8ebf;fontSize=16;" vertex="1" parent="J51PkWYAYMBCTwXNkuqa-7">
          <mxGeometry y="113" width="600" height="40" as="geometry" />
        </mxCell>
        <mxCell id="y_QmLa2hbLG9c_GjuO9h-5" value="&lt;b style=&quot;color: rgb(0, 0, 0);&quot;&gt;interrupts-extended&lt;/b&gt;" style="shape=partialRectangle;html=1;whiteSpace=wrap;connectable=0;fillColor=#f5f5f5;top=0;left=0;bottom=0;right=0;overflow=hidden;pointerEvents=1;strokeColor=#666666;fontSize=16;fontColor=#333333;" vertex="1" parent="y_QmLa2hbLG9c_GjuO9h-4">
          <mxGeometry width="210" height="40" as="geometry">
            <mxRectangle width="210" height="40" as="alternateBounds" />
          </mxGeometry>
        </mxCell>
        <mxCell id="y_QmLa2hbLG9c_GjuO9h-6" value="中断拓展属性，可以写多个interrupts，逗号隔开" style="shape=partialRectangle;html=1;whiteSpace=wrap;connectable=0;fillColor=none;top=0;left=0;bottom=0;right=0;align=left;spacingLeft=6;overflow=hidden;strokeColor=#6c8ebf;fontSize=16;" vertex="1" parent="y_QmLa2hbLG9c_GjuO9h-4">
          <mxGeometry x="210" width="390" height="40" as="geometry">
            <mxRectangle width="390" height="40" as="alternateBounds" />
          </mxGeometry>
        </mxCell>
        <mxCell id="J51PkWYAYMBCTwXNkuqa-14" value="&lt;h1&gt;&lt;font style=&quot;&quot;&gt;&lt;font style=&quot;font-size: 18px;&quot;&gt;中断 设备 属性描述&lt;/font&gt;&lt;br&gt;&lt;/font&gt;&lt;/h1&gt;" style="rounded=0;whiteSpace=wrap;html=1;fillColor=#dae8fc;strokeColor=#6c8ebf;" parent="1" vertex="1">
          <mxGeometry x="1065" y="538" width="600" height="29" as="geometry" />
        </mxCell>
        <mxCell id="J51PkWYAYMBCTwXNkuqa-15" value="&lt;span style=&quot;font-size: 16px;&quot;&gt;gic: interrupt-controller@fe600000 {&lt;/span&gt;" style="text;html=1;align=left;verticalAlign=middle;whiteSpace=wrap;rounded=0;dashed=1;fontSize=14;fillColor=none;" parent="1" vertex="1">
          <mxGeometry x="350" y="80" width="640" height="20" as="geometry" />
        </mxCell>
        <mxCell id="J51PkWYAYMBCTwXNkuqa-16" style="edgeStyle=orthogonalEdgeStyle;rounded=0;orthogonalLoop=1;jettySize=auto;html=1;entryX=0;entryY=0.25;entryDx=0;entryDy=0;fillColor=#dae8fc;strokeColor=#6c8ebf;dashed=1;strokeWidth=2;" parent="1" source="J51PkWYAYMBCTwXNkuqa-17" target="J51PkWYAYMBCTwXNkuqa-37" edge="1">
          <mxGeometry relative="1" as="geometry">
            <Array as="points">
              <mxPoint x="330" y="170" />
              <mxPoint x="330" y="363" />
            </Array>
          </mxGeometry>
        </mxCell>
        <mxCell id="J51PkWYAYMBCTwXNkuqa-17" value="&lt;span style=&quot;font-size: 16px;&quot;&gt;&lt;span style=&quot;white-space: pre;&quot;&gt;&#x9;&lt;/span&gt;&lt;b&gt;#interrupt-cells = &amp;lt;3&amp;gt;;&amp;nbsp; &amp;nbsp; &amp;nbsp; &amp;nbsp; &amp;nbsp; &amp;nbsp; &amp;nbsp; &amp;nbsp; &amp;nbsp; &amp;nbsp; &amp;nbsp; &amp;nbsp; &amp;nbsp; &amp;nbsp;&lt;span style=&quot;white-space: pre;&quot;&gt;&#x9;&lt;/span&gt;&lt;span style=&quot;white-space: pre;&quot;&gt;&#x9;&lt;/span&gt;&lt;span style=&quot;white-space: pre;&quot;&gt;&#x9;&lt;/span&gt;// GIC需要3个参数&lt;/b&gt;&lt;/span&gt;" style="text;html=1;align=left;verticalAlign=middle;whiteSpace=wrap;rounded=0;dashed=1;fontSize=14;fillColor=#fff2cc;strokeColor=none;" parent="1" vertex="1">
          <mxGeometry x="350" y="160" width="640" height="20" as="geometry" />
        </mxCell>
        <mxCell id="J51PkWYAYMBCTwXNkuqa-18" value="" style="shape=table;startSize=0;container=1;collapsible=0;childLayout=tableLayout;fixedRows=1;rowLines=0;fontStyle=0;strokeColor=#6c8ebf;fontSize=16;fillColor=none;" parent="1" vertex="1">
          <mxGeometry x="1070" y="109" width="610" height="81" as="geometry" />
        </mxCell>
        <mxCell id="J51PkWYAYMBCTwXNkuqa-19" value="" style="shape=tableRow;horizontal=0;startSize=0;swimlaneHead=0;swimlaneBody=0;top=0;left=0;bottom=0;right=0;collapsible=0;dropTarget=0;fillColor=none;points=[[0,0.5],[1,0.5]];portConstraint=eastwest;strokeColor=inherit;fontSize=16;" parent="J51PkWYAYMBCTwXNkuqa-18" vertex="1">
          <mxGeometry width="610" height="41" as="geometry" />
        </mxCell>
        <mxCell id="J51PkWYAYMBCTwXNkuqa-20" value="&lt;b&gt;&lt;font style=&quot;color: light-dark(rgb(0, 0, 0), rgb(255, 255, 255));&quot;&gt;interrupt-controller&lt;/font&gt;&lt;/b&gt;" style="shape=partialRectangle;html=1;whiteSpace=wrap;connectable=0;fillColor=#d5e8d4;top=0;left=0;bottom=0;right=0;overflow=hidden;pointerEvents=1;strokeColor=#82b366;fontSize=16;" parent="J51PkWYAYMBCTwXNkuqa-19" vertex="1">
          <mxGeometry width="190" height="41" as="geometry">
            <mxRectangle width="190" height="41" as="alternateBounds" />
          </mxGeometry>
        </mxCell>
        <mxCell id="J51PkWYAYMBCTwXNkuqa-21" value="标识当前节点所描述的设备是一个&lt;b&gt;中断控制器&lt;/b&gt;" style="shape=partialRectangle;html=1;whiteSpace=wrap;connectable=0;fillColor=none;top=0;left=0;bottom=0;right=0;align=left;spacingLeft=6;overflow=hidden;strokeColor=inherit;fontSize=16;" parent="J51PkWYAYMBCTwXNkuqa-19" vertex="1">
          <mxGeometry x="190" width="420" height="41" as="geometry">
            <mxRectangle width="420" height="41" as="alternateBounds" />
          </mxGeometry>
        </mxCell>
        <mxCell id="J51PkWYAYMBCTwXNkuqa-22" value="" style="shape=tableRow;horizontal=0;startSize=0;swimlaneHead=0;swimlaneBody=0;top=0;left=0;bottom=0;right=0;collapsible=0;dropTarget=0;fillColor=none;points=[[0,0.5],[1,0.5]];portConstraint=eastwest;strokeColor=inherit;fontSize=16;" parent="J51PkWYAYMBCTwXNkuqa-18" vertex="1">
          <mxGeometry y="41" width="610" height="40" as="geometry" />
        </mxCell>
        <mxCell id="J51PkWYAYMBCTwXNkuqa-23" value="&lt;b&gt;#interrupt-cells&lt;/b&gt;" style="shape=partialRectangle;html=1;whiteSpace=wrap;connectable=0;fillColor=#fff2cc;top=0;left=0;bottom=0;right=0;overflow=hidden;pointerEvents=1;strokeColor=#d6b656;fontSize=16;" parent="J51PkWYAYMBCTwXNkuqa-22" vertex="1">
          <mxGeometry width="190" height="40" as="geometry">
            <mxRectangle width="190" height="40" as="alternateBounds" />
          </mxGeometry>
        </mxCell>
        <mxCell id="J51PkWYAYMBCTwXNkuqa-24" value="该控制器管理的中断，使用interrupts属性时，u32的个数" style="shape=partialRectangle;html=1;whiteSpace=wrap;connectable=0;fillColor=none;top=0;left=0;bottom=0;right=0;align=left;spacingLeft=6;overflow=hidden;strokeColor=inherit;fontSize=16;" parent="J51PkWYAYMBCTwXNkuqa-22" vertex="1">
          <mxGeometry x="190" width="420" height="40" as="geometry">
            <mxRectangle width="420" height="40" as="alternateBounds" />
          </mxGeometry>
        </mxCell>
        <mxCell id="J51PkWYAYMBCTwXNkuqa-25" value="&lt;h1&gt;&lt;font style=&quot;&quot;&gt;&lt;font style=&quot;font-size: 18px;&quot;&gt;中断控制器 属性描述&lt;/font&gt;&lt;br&gt;&lt;/font&gt;&lt;/h1&gt;" style="rounded=0;whiteSpace=wrap;html=1;fillColor=#dae8fc;strokeColor=#6c8ebf;" parent="1" vertex="1">
          <mxGeometry x="1070" y="80" width="610" height="29" as="geometry" />
        </mxCell>
        <mxCell id="J51PkWYAYMBCTwXNkuqa-26" value="&lt;font style=&quot;font-size: 18px;&quot;&gt;&lt;b&gt;概念&lt;/b&gt;&lt;/font&gt;" style="shape=umlFrame;whiteSpace=wrap;html=1;pointerEvents=0;recursiveResize=0;container=1;collapsible=0;width=95;fillColor=#dae8fc;strokeColor=#6c8ebf;height=30;" parent="1" vertex="1">
          <mxGeometry x="1070" y="30" width="590" height="30" as="geometry" />
        </mxCell>
        <mxCell id="J51PkWYAYMBCTwXNkuqa-27" value="&lt;b&gt;&lt;font style=&quot;font-size: 16px;&quot;&gt;描述硬件设备和系统中的&lt;font style=&quot;color: light-dark(rgb(255, 0, 0), rgb(255, 255, 255));&quot;&gt;中断控制器&lt;/font&gt;&lt;font style=&quot;&quot;&gt;、&lt;/font&gt;&lt;font style=&quot;color: light-dark(rgb(255, 0, 0), rgb(255, 255, 255));&quot;&gt;中断设备&lt;/font&gt;&lt;/font&gt;&lt;/b&gt;" style="text;html=1;align=left;verticalAlign=middle;whiteSpace=wrap;rounded=0;fillColor=none;strokeColor=none;dashed=1;fontSize=14;" parent="J51PkWYAYMBCTwXNkuqa-26" vertex="1">
          <mxGeometry x="100" width="490" height="30" as="geometry" />
        </mxCell>
        <mxCell id="J51PkWYAYMBCTwXNkuqa-28" value="&lt;span style=&quot;font-size: 16px;&quot;&gt;&lt;span style=&quot;white-space: pre;&quot;&gt;&#x9;&lt;/span&gt;compatible = &quot;arm,gic-v3&quot;;&lt;/span&gt;" style="text;html=1;align=left;verticalAlign=middle;whiteSpace=wrap;rounded=0;dashed=1;fontSize=14;fillColor=none;" parent="1" vertex="1">
          <mxGeometry x="350" y="100" width="640" height="20" as="geometry" />
        </mxCell>
        <mxCell id="J51PkWYAYMBCTwXNkuqa-29" value="&lt;span style=&quot;font-size: 16px;&quot;&gt;// 次级中断控制器：GPIO0&lt;/span&gt;" style="text;html=1;align=left;verticalAlign=middle;whiteSpace=wrap;rounded=0;dashed=1;fontSize=14;fillColor=none;" parent="1" vertex="1">
          <mxGeometry x="350" y="218" width="640" height="20" as="geometry" />
        </mxCell>
        <mxCell id="J51PkWYAYMBCTwXNkuqa-30" value="&lt;span style=&quot;font-size: 16px;&quot;&gt;&lt;span style=&quot;white-space: pre;&quot;&gt;&#x9;&lt;/span&gt;reg = &amp;lt;0x0 0xfdd60000 0x0 0x100&amp;gt;;&lt;/span&gt;" style="text;html=1;align=left;verticalAlign=middle;whiteSpace=wrap;rounded=0;dashed=1;fontSize=14;fillColor=none;" parent="1" vertex="1">
          <mxGeometry x="350" y="278" width="640" height="20" as="geometry" />
        </mxCell>
        <mxCell id="J51PkWYAYMBCTwXNkuqa-31" value="&lt;span style=&quot;font-size: 16px;&quot;&gt;gpio0: gpio@fdd60000 {&lt;/span&gt;" style="text;html=1;align=left;verticalAlign=middle;whiteSpace=wrap;rounded=0;dashed=1;fontSize=14;fillColor=none;" parent="1" vertex="1">
          <mxGeometry x="350" y="238" width="640" height="20" as="geometry" />
        </mxCell>
        <mxCell id="J51PkWYAYMBCTwXNkuqa-32" value="&lt;span style=&quot;font-size: 16px;&quot;&gt;&lt;b&gt;&lt;span style=&quot;white-space: pre;&quot;&gt;&#x9;&lt;/span&gt;interrupt-controller;&amp;nbsp; &amp;nbsp; &amp;nbsp; &amp;nbsp; &amp;nbsp; &amp;nbsp; &amp;nbsp; &amp;nbsp; &amp;nbsp; &amp;nbsp; &amp;nbsp; &amp;nbsp; &amp;nbsp; &amp;nbsp; &amp;nbsp;&lt;span style=&quot;white-space: pre;&quot;&gt;&#x9;&lt;/span&gt;&lt;span style=&quot;white-space: pre;&quot;&gt;&#x9;&lt;/span&gt;&lt;span style=&quot;white-space: pre;&quot;&gt;&#x9;&lt;/span&gt;&lt;span style=&quot;white-space: pre;&quot;&gt;&#x9;&lt;/span&gt;// 标识为中断控制器&lt;/b&gt;&lt;/span&gt;" style="text;html=1;align=left;verticalAlign=middle;whiteSpace=wrap;rounded=0;dashed=1;fontSize=14;fillColor=#d5e8d4;strokeColor=none;" parent="1" vertex="1">
          <mxGeometry x="350" y="298" width="640" height="20" as="geometry" />
        </mxCell>
        <mxCell id="J51PkWYAYMBCTwXNkuqa-33" value="&lt;span style=&quot;font-size: 16px;&quot;&gt;&lt;span style=&quot;white-space: pre;&quot;&gt;&#x9;&lt;/span&gt;compatible = &quot;rockchip,rk3568-gpio&quot;;&lt;/span&gt;" style="text;html=1;align=left;verticalAlign=middle;whiteSpace=wrap;rounded=0;dashed=1;fontSize=14;fillColor=none;" parent="1" vertex="1">
          <mxGeometry x="350" y="258" width="640" height="20" as="geometry" />
        </mxCell>
        <mxCell id="J51PkWYAYMBCTwXNkuqa-34" style="edgeStyle=orthogonalEdgeStyle;rounded=0;orthogonalLoop=1;jettySize=auto;html=1;entryX=0;entryY=0.25;entryDx=0;entryDy=0;fillColor=#dae8fc;strokeColor=#6c8ebf;strokeWidth=2;dashed=1;" parent="1" source="J51PkWYAYMBCTwXNkuqa-35" target="J51PkWYAYMBCTwXNkuqa-52" edge="1">
          <mxGeometry relative="1" as="geometry">
            <Array as="points">
              <mxPoint x="320" y="328" />
              <mxPoint x="320" y="746" />
            </Array>
          </mxGeometry>
        </mxCell>
        <mxCell id="J51PkWYAYMBCTwXNkuqa-35" value="&lt;span style=&quot;font-size: 16px;&quot;&gt;&lt;b&gt;&lt;span style=&quot;white-space: pre;&quot;&gt;&#x9;&lt;/span&gt;#interrupt-cells = &amp;lt;2&amp;gt;; &lt;span style=&quot;white-space: pre;&quot;&gt;&#x9;&lt;/span&gt;&lt;span style=&quot;white-space: pre;&quot;&gt;&#x9;&lt;/span&gt;&lt;span style=&quot;white-space: pre;&quot;&gt;&#x9;&lt;/span&gt;&lt;span style=&quot;white-space: pre;&quot;&gt;&#x9;&lt;/span&gt; &lt;span style=&quot;white-space: pre;&quot;&gt;&#x9;&lt;/span&gt;                         // GPIO2个参数：中断号+触发类型&lt;/b&gt;&lt;/span&gt;" style="text;html=1;align=left;verticalAlign=middle;whiteSpace=wrap;rounded=0;dashed=1;fontSize=14;fillColor=#fff2cc;strokeColor=none;" parent="1" vertex="1">
          <mxGeometry x="350" y="318" width="640" height="20" as="geometry" />
        </mxCell>
        <mxCell id="J51PkWYAYMBCTwXNkuqa-36" value="&lt;span style=&quot;font-size: 16px;&quot;&gt;&lt;b&gt;&lt;span style=&quot;white-space: pre;&quot;&gt;&#x9;&lt;/span&gt;interrupt-parent = &amp;lt;&amp;amp;gic&amp;gt;;&amp;nbsp; &amp;nbsp; &amp;nbsp; &amp;nbsp; &amp;nbsp; &amp;nbsp; &amp;nbsp; &amp;nbsp; &amp;nbsp; &amp;nbsp; &amp;nbsp; &amp;nbsp; &lt;span style=&quot;white-space: pre;&quot;&gt;&#x9;&lt;/span&gt;&lt;span style=&quot;white-space: pre;&quot;&gt;&#x9;&lt;/span&gt;&lt;span style=&quot;white-space: pre;&quot;&gt;&#x9;&lt;/span&gt;// 上级控制器为GIC&lt;/b&gt;&lt;/span&gt;" style="text;html=1;align=left;verticalAlign=middle;whiteSpace=wrap;rounded=0;dashed=1;fontSize=14;fillColor=#f5f5f5;strokeColor=none;fontColor=#333333;" parent="1" vertex="1">
          <mxGeometry x="350" y="338" width="640" height="20" as="geometry" />
        </mxCell>
        <mxCell id="J51PkWYAYMBCTwXNkuqa-37" value="&lt;span style=&quot;font-size: 16px;&quot;&gt;&lt;b&gt;&lt;span style=&quot;white-space: pre;&quot;&gt;&#x9;&lt;/span&gt;interrupts = &amp;lt;GIC_SPI 33 IRQ_TYPE_LEVEL_HIGH&amp;gt;;&amp;nbsp;&lt;/b&gt;&lt;/span&gt;" style="text;html=1;align=left;verticalAlign=middle;whiteSpace=wrap;rounded=0;dashed=1;fontSize=14;fillColor=#e1d5e7;strokeColor=none;" parent="1" vertex="1">
          <mxGeometry x="350" y="358" width="640" height="20" as="geometry" />
        </mxCell>
        <mxCell id="J51PkWYAYMBCTwXNkuqa-38" value="&lt;span style=&quot;font-size: 16px;&quot;&gt;&lt;span style=&quot;white-space: pre;&quot;&gt;&#x9;&lt;/span&gt;&lt;/span&gt;&lt;span style=&quot;font-size: 16px;&quot;&gt;// 向GIC上报的中断信息(3个参数)&lt;/span&gt;" style="text;html=1;align=left;verticalAlign=middle;whiteSpace=wrap;rounded=0;dashed=1;fontSize=14;fillColor=none;" parent="1" vertex="1">
          <mxGeometry x="350" y="378" width="640" height="20" as="geometry" />
        </mxCell>
        <mxCell id="J51PkWYAYMBCTwXNkuqa-39" value="&lt;span style=&quot;font-size: 16px;&quot;&gt;};&lt;/span&gt;" style="text;html=1;align=left;verticalAlign=middle;whiteSpace=wrap;rounded=0;dashed=1;fontSize=14;fillColor=none;" parent="1" vertex="1">
          <mxGeometry x="350" y="398" width="640" height="20" as="geometry" />
        </mxCell>
        <mxCell id="J51PkWYAYMBCTwXNkuqa-40" value="&lt;span style=&quot;font-size: 16px;&quot;&gt;// 次级中断控制器：GPIO1&lt;/span&gt;" style="text;html=1;align=left;verticalAlign=middle;whiteSpace=wrap;rounded=0;dashed=1;fontSize=14;fillColor=none;" parent="1" vertex="1">
          <mxGeometry x="350" y="440" width="640" height="20" as="geometry" />
        </mxCell>
        <mxCell id="J51PkWYAYMBCTwXNkuqa-41" value="&lt;font style=&quot;font-size: 16px;&quot;&gt;&lt;span style=&quot;white-space: pre;&quot;&gt;&#x9;&lt;/span&gt;&lt;/font&gt;&lt;span style=&quot;font-size: 16px;&quot;&gt;reg = &amp;lt;0x0 0xfe740000 0x0 0x100&amp;gt;;&lt;/span&gt;" style="text;html=1;align=left;verticalAlign=middle;whiteSpace=wrap;rounded=0;dashed=1;fontSize=14;fillColor=none;" parent="1" vertex="1">
          <mxGeometry x="350" y="500" width="640" height="20" as="geometry" />
        </mxCell>
        <mxCell id="J51PkWYAYMBCTwXNkuqa-42" value="&lt;b&gt;&lt;span style=&quot;font-size: 16px; white-space: pre;&quot;&gt;&#x9;&lt;/span&gt;&lt;span style=&quot;font-size: 16px;&quot;&gt;interrupt-controller; #interrupt-cells = &amp;lt;2&amp;gt;;&amp;nbsp; &amp;nbsp; &amp;nbsp;&lt;span style=&quot;white-space: pre;&quot;&gt;&#x9;&lt;/span&gt;&lt;span style=&quot;white-space: pre;&quot;&gt;&#x9;&lt;/span&gt;// GPIO控制器，2个参数&lt;/span&gt;&lt;/b&gt;" style="text;html=1;align=left;verticalAlign=middle;whiteSpace=wrap;rounded=0;dashed=1;fontSize=14;fillColor=#d5e8d4;strokeColor=none;" parent="1" vertex="1">
          <mxGeometry x="350" y="520" width="640" height="20" as="geometry" />
        </mxCell>
        <mxCell id="J51PkWYAYMBCTwXNkuqa-43" value="&lt;span style=&quot;font-size: 16px;&quot;&gt;&lt;span style=&quot;white-space: pre;&quot;&gt;&#x9;&lt;/span&gt;// 中断类型+中断号+触发类型&lt;/span&gt;" style="text;html=1;align=left;verticalAlign=middle;whiteSpace=wrap;rounded=0;dashed=1;fontSize=14;fillColor=none;" parent="1" vertex="1">
          <mxGeometry x="350" y="580" width="640" height="20" as="geometry" />
        </mxCell>
        <mxCell id="J51PkWYAYMBCTwXNkuqa-44" value="&lt;span style=&quot;font-size: 16px;&quot;&gt;gpio1: gpio@fe740000 {&lt;/span&gt;" style="text;html=1;align=left;verticalAlign=middle;whiteSpace=wrap;rounded=0;dashed=1;fontSize=14;fillColor=none;" parent="1" vertex="1">
          <mxGeometry x="350" y="460" width="640" height="20" as="geometry" />
        </mxCell>
        <mxCell id="J51PkWYAYMBCTwXNkuqa-45" value="&lt;span style=&quot;font-size: 16px;&quot;&gt;&lt;b&gt;&lt;span style=&quot;white-space: pre;&quot;&gt;&#x9;&lt;/span&gt;interrupt-parent = &amp;lt;&amp;amp;gic&amp;gt;;&amp;nbsp; &amp;nbsp; &amp;nbsp; &amp;nbsp; &amp;nbsp; &amp;nbsp; &amp;nbsp; &amp;nbsp; &amp;nbsp; &amp;nbsp; &amp;nbsp; &amp;nbsp; &lt;span style=&quot;white-space: pre;&quot;&gt;&#x9;&lt;/span&gt;&lt;span style=&quot;white-space: pre;&quot;&gt;&#x9;&lt;/span&gt;&lt;span style=&quot;white-space: pre;&quot;&gt;&#x9;&lt;/span&gt;// 上级控制器为GIC&lt;/b&gt;&lt;/span&gt;" style="text;html=1;align=left;verticalAlign=middle;whiteSpace=wrap;rounded=0;dashed=1;fontSize=14;fillColor=#f5f5f5;strokeColor=none;fontColor=#333333;" parent="1" vertex="1">
          <mxGeometry x="350" y="540" width="640" height="20" as="geometry" />
        </mxCell>
        <mxCell id="J51PkWYAYMBCTwXNkuqa-46" value="&lt;span style=&quot;font-size: 16px;&quot;&gt;&lt;span style=&quot;white-space: pre;&quot;&gt;&#x9;&lt;/span&gt;compatible = &quot;rockchip,rk3568-gpio&quot;;&lt;/span&gt;" style="text;html=1;align=left;verticalAlign=middle;whiteSpace=wrap;rounded=0;dashed=1;fontSize=14;fillColor=none;" parent="1" vertex="1">
          <mxGeometry x="350" y="480" width="640" height="20" as="geometry" />
        </mxCell>
        <mxCell id="J51PkWYAYMBCTwXNkuqa-47" value="&lt;span style=&quot;font-size: 16px;&quot;&gt;// 终端设备1：触摸屏&lt;/span&gt;" style="text;html=1;align=left;verticalAlign=middle;whiteSpace=wrap;rounded=0;dashed=1;fontSize=14;fillColor=none;" parent="1" vertex="1">
          <mxGeometry x="350" y="640" width="640" height="20" as="geometry" />
        </mxCell>
        <mxCell id="J51PkWYAYMBCTwXNkuqa-48" value="&lt;span style=&quot;font-size: 16px;&quot;&gt;&lt;span style=&quot;white-space: pre;&quot;&gt;&#x9;&lt;/span&gt;reg = &amp;lt;0x38&amp;gt;;&lt;/span&gt;" style="text;html=1;align=left;verticalAlign=middle;whiteSpace=wrap;rounded=0;dashed=1;fontSize=14;fillColor=none;" parent="1" vertex="1">
          <mxGeometry x="350" y="700" width="640" height="20" as="geometry" />
        </mxCell>
        <mxCell id="J51PkWYAYMBCTwXNkuqa-49" value="&lt;span style=&quot;font-size: 16px; white-space: pre;&quot;&gt;&#x9;&lt;/span&gt;&lt;span style=&quot;font-size: 16px;&quot;&gt;&lt;b&gt;interrupt-parent = &amp;lt;&amp;amp;gpio0&amp;gt;;&amp;nbsp; &amp;nbsp; &amp;nbsp; &amp;nbsp; &amp;nbsp; &amp;nbsp; &amp;nbsp; &amp;nbsp; &amp;nbsp; &amp;nbsp; &amp;nbsp; &lt;span style=&quot;white-space: pre;&quot;&gt;&#x9;&lt;/span&gt;&lt;span style=&quot;white-space: pre;&quot;&gt;&#x9;&lt;/span&gt;&lt;span style=&quot;white-space: pre;&quot;&gt;&#x9;&lt;/span&gt;// 中断来源为gpio0&lt;/b&gt;&lt;/span&gt;" style="text;html=1;align=left;verticalAlign=middle;whiteSpace=wrap;rounded=0;dashed=1;fontSize=14;fillColor=#f5f5f5;strokeColor=none;fontColor=#333333;" parent="1" vertex="1">
          <mxGeometry x="350" y="720" width="640" height="20" as="geometry" />
        </mxCell>
        <mxCell id="J51PkWYAYMBCTwXNkuqa-50" value="&lt;span style=&quot;font-size: 16px;&quot;&gt;};&lt;/span&gt;" style="text;html=1;align=left;verticalAlign=middle;whiteSpace=wrap;rounded=0;dashed=1;fontSize=14;fillColor=none;" parent="1" vertex="1">
          <mxGeometry x="350" y="760" width="640" height="20" as="geometry" />
        </mxCell>
        <mxCell id="J51PkWYAYMBCTwXNkuqa-51" value="&lt;span style=&quot;font-size: 16px;&quot;&gt;ft5x06: touchscreen@38 {&lt;/span&gt;" style="text;html=1;align=left;verticalAlign=middle;whiteSpace=wrap;rounded=0;dashed=1;fontSize=14;fillColor=none;" parent="1" vertex="1">
          <mxGeometry x="350" y="660" width="640" height="20" as="geometry" />
        </mxCell>
        <mxCell id="J51PkWYAYMBCTwXNkuqa-52" value="&lt;span style=&quot;font-size: 16px;&quot;&gt;&lt;span style=&quot;white-space: pre;&quot;&gt;&#x9;&lt;/span&gt;interrupts = &amp;lt;8 IRQ_TYPE_EDGE_FALLING&amp;gt;;&amp;nbsp; &amp;nbsp; &amp;nbsp; &amp;nbsp; &amp;nbsp; &amp;nbsp;// 8号引脚+下降沿触发&lt;/span&gt;" style="text;html=1;align=left;verticalAlign=middle;whiteSpace=wrap;rounded=0;dashed=1;fontSize=14;fillColor=#e1d5e7;fontStyle=1;strokeColor=none;" parent="1" vertex="1">
          <mxGeometry x="350" y="740" width="640" height="20" as="geometry" />
        </mxCell>
        <mxCell id="J51PkWYAYMBCTwXNkuqa-53" value="&lt;span style=&quot;font-size: 16px;&quot;&gt;&lt;span style=&quot;white-space: pre;&quot;&gt;&#x9;&lt;/span&gt;compatible = &quot;edt,edt-ft5406&quot;;&lt;/span&gt;" style="text;html=1;align=left;verticalAlign=middle;whiteSpace=wrap;rounded=0;dashed=1;fontSize=14;fillColor=none;" parent="1" vertex="1">
          <mxGeometry x="350" y="680" width="640" height="20" as="geometry" />
        </mxCell>
        <mxCell id="J51PkWYAYMBCTwXNkuqa-54" value="&lt;span style=&quot;font-size: 16px;&quot;&gt;// 终端设备2：按键&lt;/span&gt;" style="text;html=1;align=left;verticalAlign=middle;whiteSpace=wrap;rounded=0;dashed=1;fontSize=14;fillColor=none;" parent="1" vertex="1">
          <mxGeometry x="350" y="800" width="640" height="20" as="geometry" />
        </mxCell>
        <mxCell id="J51PkWYAYMBCTwXNkuqa-55" value="&lt;b&gt;&lt;font style=&quot;font-size: 16px;&quot;&gt;&lt;span style=&quot;white-space: pre;&quot;&gt;&#x9;&lt;/span&gt;&lt;/font&gt;&lt;span style=&quot;font-size: 16px;&quot;&gt;interrupt-parent = &amp;lt;&amp;amp;gpio1&amp;gt;;&amp;nbsp; &amp;nbsp; &amp;nbsp; &amp;nbsp; &amp;nbsp; &amp;nbsp; &amp;nbsp; &amp;nbsp; &amp;nbsp; &amp;nbsp; &amp;nbsp; &lt;span style=&quot;white-space: pre;&quot;&gt;&#x9;&lt;/span&gt;&lt;span style=&quot;white-space: pre;&quot;&gt;&#x9;&lt;/span&gt;&lt;span style=&quot;white-space: pre;&quot;&gt;&#x9;&lt;/span&gt;// 中断来源为gpio1&lt;/span&gt;&lt;/b&gt;" style="text;html=1;align=left;verticalAlign=middle;whiteSpace=wrap;rounded=0;dashed=1;fontSize=14;fillColor=#f5f5f5;fontColor=#333333;strokeColor=none;" parent="1" vertex="1">
          <mxGeometry x="350" y="860" width="640" height="20" as="geometry" />
        </mxCell>
        <mxCell id="J51PkWYAYMBCTwXNkuqa-56" value="&lt;span style=&quot;font-size: 16px; white-space: pre;&quot;&gt;&#x9;&lt;/span&gt;&lt;span style=&quot;font-size: 16px;&quot;&gt;&lt;b&gt;interrupts = &amp;lt;2 IRQ_TYPE_EDGE_RISING&amp;gt;;&amp;nbsp; &amp;nbsp; &amp;nbsp; &amp;nbsp; &amp;nbsp; &amp;nbsp; &lt;span style=&quot;white-space: pre;&quot;&gt;&#x9;&lt;/span&gt;// 2号引脚+上升沿触发&lt;/b&gt;&lt;/span&gt;" style="text;html=1;align=left;verticalAlign=middle;whiteSpace=wrap;rounded=0;dashed=1;fontSize=14;fillColor=#e1d5e7;strokeColor=none;" parent="1" vertex="1">
          <mxGeometry x="350" y="880" width="640" height="20" as="geometry" />
        </mxCell>
        <mxCell id="J51PkWYAYMBCTwXNkuqa-57" value="&lt;span style=&quot;font-size: 16px;&quot;&gt;};&lt;/span&gt;" style="text;html=1;align=left;verticalAlign=middle;whiteSpace=wrap;rounded=0;dashed=1;fontSize=14;" parent="1" vertex="1">
          <mxGeometry x="350" y="900" width="640" height="20" as="geometry" />
        </mxCell>
        <mxCell id="J51PkWYAYMBCTwXNkuqa-58" value="&lt;span style=&quot;font-size: 16px;&quot;&gt;key_power: key-power {&lt;/span&gt;" style="text;html=1;align=left;verticalAlign=middle;whiteSpace=wrap;rounded=0;dashed=1;fontSize=14;fillColor=none;" parent="1" vertex="1">
          <mxGeometry x="350" y="820" width="640" height="20" as="geometry" />
        </mxCell>
        <mxCell id="J51PkWYAYMBCTwXNkuqa-59" value="&lt;span style=&quot;font-size: 16px; white-space: pre;&quot;&gt;&#x9;&lt;/span&gt;&lt;span style=&quot;font-size: 16px;&quot;&gt;compatible = &quot;gpio-keys&quot;;&lt;/span&gt;" style="text;html=1;align=left;verticalAlign=middle;whiteSpace=wrap;rounded=0;dashed=1;fontSize=14;fillColor=none;" parent="1" vertex="1">
          <mxGeometry x="350" y="840" width="640" height="20" as="geometry" />
        </mxCell>
        <mxCell id="J51PkWYAYMBCTwXNkuqa-60" value="&lt;span style=&quot;font-size: 16px;&quot;&gt;&lt;b&gt;&lt;span style=&quot;white-space: pre;&quot;&gt;&#x9;&lt;/span&gt;interrupts = &amp;lt;GIC_SPI 34 IRQ_TYPE_LEVEL_HIGH&amp;gt;;&amp;nbsp; &amp;nbsp;&amp;nbsp;&lt;/b&gt;&lt;/span&gt;" style="text;html=1;align=left;verticalAlign=middle;whiteSpace=wrap;rounded=0;dashed=1;fontSize=14;fillColor=#e1d5e7;strokeColor=none;" parent="1" vertex="1">
          <mxGeometry x="350" y="560" width="640" height="20" as="geometry" />
        </mxCell>
        <mxCell id="J51PkWYAYMBCTwXNkuqa-61" value="&lt;span style=&quot;font-size: 16px;&quot;&gt;};&lt;/span&gt;" style="text;html=1;align=left;verticalAlign=middle;whiteSpace=wrap;rounded=0;dashed=1;fontSize=14;fillColor=none;" parent="1" vertex="1">
          <mxGeometry x="350" y="600" width="640" height="20" as="geometry" />
        </mxCell>
        <mxCell id="J51PkWYAYMBCTwXNkuqa-62" style="edgeStyle=orthogonalEdgeStyle;rounded=0;orthogonalLoop=1;jettySize=auto;html=1;curved=1;fillColor=#d5e8d4;strokeColor=#82b366;strokeWidth=2;" parent="1" source="J51PkWYAYMBCTwXNkuqa-19" target="J51PkWYAYMBCTwXNkuqa-5" edge="1">
          <mxGeometry relative="1" as="geometry" />
        </mxCell>
        <mxCell id="J51PkWYAYMBCTwXNkuqa-63" style="edgeStyle=orthogonalEdgeStyle;rounded=0;orthogonalLoop=1;jettySize=auto;html=1;curved=1;fillColor=#f8cecc;strokeColor=#b85450;strokeWidth=2;" parent="1" source="J51PkWYAYMBCTwXNkuqa-22" target="J51PkWYAYMBCTwXNkuqa-17" edge="1">
          <mxGeometry relative="1" as="geometry" />
        </mxCell>
        <mxCell id="J51PkWYAYMBCTwXNkuqa-64" style="edgeStyle=orthogonalEdgeStyle;rounded=0;orthogonalLoop=1;jettySize=auto;html=1;entryX=1;entryY=0.5;entryDx=0;entryDy=0;curved=1;fillColor=#d5e8d4;strokeColor=#82b366;strokeWidth=2;" parent="1" source="J51PkWYAYMBCTwXNkuqa-19" target="J51PkWYAYMBCTwXNkuqa-32" edge="1">
          <mxGeometry relative="1" as="geometry" />
        </mxCell>
        <mxCell id="J51PkWYAYMBCTwXNkuqa-65" style="edgeStyle=orthogonalEdgeStyle;rounded=0;orthogonalLoop=1;jettySize=auto;html=1;entryX=1;entryY=0.5;entryDx=0;entryDy=0;curved=1;fillColor=#f8cecc;strokeColor=#b85450;strokeWidth=2;" parent="1" source="J51PkWYAYMBCTwXNkuqa-22" target="J51PkWYAYMBCTwXNkuqa-35" edge="1">
          <mxGeometry relative="1" as="geometry">
            <Array as="points">
              <mxPoint x="1050" y="170" />
              <mxPoint x="1050" y="328" />
            </Array>
          </mxGeometry>
        </mxCell>
        <mxCell id="J51PkWYAYMBCTwXNkuqa-66" style="edgeStyle=orthogonalEdgeStyle;rounded=0;orthogonalLoop=1;jettySize=auto;html=1;entryX=1;entryY=0.25;entryDx=0;entryDy=0;curved=1;fillColor=#f5f5f5;strokeColor=#666666;strokeWidth=2;" parent="1" source="J51PkWYAYMBCTwXNkuqa-8" target="J51PkWYAYMBCTwXNkuqa-49" edge="1">
          <mxGeometry relative="1" as="geometry">
            <Array as="points">
              <mxPoint x="1020" y="587" />
              <mxPoint x="1020" y="725" />
            </Array>
          </mxGeometry>
        </mxCell>
        <mxCell id="J51PkWYAYMBCTwXNkuqa-67" style="edgeStyle=orthogonalEdgeStyle;rounded=0;orthogonalLoop=1;jettySize=auto;html=1;entryX=1;entryY=0.5;entryDx=0;entryDy=0;curved=1;fillColor=#e1d5e7;strokeColor=#9673a6;strokeWidth=2;" parent="1" source="J51PkWYAYMBCTwXNkuqa-11" target="J51PkWYAYMBCTwXNkuqa-52" edge="1">
          <mxGeometry relative="1" as="geometry" />
        </mxCell>
        <mxCell id="J51PkWYAYMBCTwXNkuqa-68" style="edgeStyle=orthogonalEdgeStyle;rounded=0;orthogonalLoop=1;jettySize=auto;html=1;entryX=1;entryY=0.25;entryDx=0;entryDy=0;curved=1;fillColor=#f5f5f5;strokeColor=#666666;strokeWidth=2;" parent="1" source="J51PkWYAYMBCTwXNkuqa-8" target="J51PkWYAYMBCTwXNkuqa-55" edge="1">
          <mxGeometry relative="1" as="geometry">
            <Array as="points">
              <mxPoint x="1040" y="587" />
              <mxPoint x="1040" y="865" />
            </Array>
          </mxGeometry>
        </mxCell>
        <mxCell id="J51PkWYAYMBCTwXNkuqa-69" style="edgeStyle=orthogonalEdgeStyle;rounded=0;orthogonalLoop=1;jettySize=auto;html=1;entryX=1;entryY=0.25;entryDx=0;entryDy=0;curved=1;fillColor=#e1d5e7;strokeColor=#9673a6;strokeWidth=2;" parent="1" source="J51PkWYAYMBCTwXNkuqa-11" target="J51PkWYAYMBCTwXNkuqa-56" edge="1">
          <mxGeometry relative="1" as="geometry">
            <Array as="points">
              <mxPoint x="1060" y="644" />
              <mxPoint x="1060" y="885" />
            </Array>
          </mxGeometry>
        </mxCell>
        <mxCell id="J51PkWYAYMBCTwXNkuqa-70" style="edgeStyle=orthogonalEdgeStyle;rounded=0;orthogonalLoop=1;jettySize=auto;html=1;entryX=1;entryY=0.5;entryDx=0;entryDy=0;fillColor=#d5e8d4;strokeColor=#82b366;strokeWidth=2;curved=1;" parent="1" source="J51PkWYAYMBCTwXNkuqa-19" target="J51PkWYAYMBCTwXNkuqa-42" edge="1">
          <mxGeometry relative="1" as="geometry">
            <Array as="points">
              <mxPoint x="1040" y="129" />
              <mxPoint x="1040" y="530" />
            </Array>
          </mxGeometry>
        </mxCell>
        <mxCell id="y_QmLa2hbLG9c_GjuO9h-7" value="" style="shape=table;startSize=0;container=1;collapsible=0;childLayout=tableLayout;fixedRows=1;rowLines=0;fontStyle=0;strokeColor=#6c8ebf;fontSize=16;fillColor=none;" vertex="1" parent="1">
          <mxGeometry x="1065" y="789" width="590" height="121" as="geometry" />
        </mxCell>
        <mxCell id="y_QmLa2hbLG9c_GjuO9h-23" value="" style="shape=tableRow;horizontal=0;startSize=0;swimlaneHead=0;swimlaneBody=0;top=0;left=0;bottom=0;right=0;collapsible=0;dropTarget=0;fillColor=none;points=[[0,0.5],[1,0.5]];portConstraint=eastwest;strokeColor=#6c8ebf;fontSize=16;" vertex="1" parent="y_QmLa2hbLG9c_GjuO9h-7">
          <mxGeometry width="590" height="61" as="geometry" />
        </mxCell>
        <mxCell id="y_QmLa2hbLG9c_GjuO9h-24" value="&lt;font color=&quot;#000000&quot;&gt;&lt;b&gt;解析interrupts属性&lt;/b&gt;&lt;/font&gt;" style="shape=partialRectangle;html=1;whiteSpace=wrap;connectable=0;fillColor=none;top=0;left=0;bottom=0;right=0;overflow=hidden;pointerEvents=1;strokeColor=#666666;fontSize=16;fontColor=#333333;" vertex="1" parent="y_QmLa2hbLG9c_GjuO9h-23">
          <mxGeometry width="110" height="61" as="geometry">
            <mxRectangle width="110" height="61" as="alternateBounds" />
          </mxGeometry>
        </mxCell>
        <mxCell id="y_QmLa2hbLG9c_GjuO9h-25" value="unsigned int &lt;b&gt;irq_of_parse_and_map&lt;/b&gt;(struct device_node *node, int index)" style="shape=partialRectangle;html=1;whiteSpace=wrap;connectable=0;fillColor=none;top=0;left=0;bottom=0;right=0;align=left;spacingLeft=6;overflow=hidden;strokeColor=#6c8ebf;fontSize=16;" vertex="1" parent="y_QmLa2hbLG9c_GjuO9h-23">
          <mxGeometry x="110" width="480" height="61" as="geometry">
            <mxRectangle width="480" height="61" as="alternateBounds" />
          </mxGeometry>
        </mxCell>
        <mxCell id="y_QmLa2hbLG9c_GjuO9h-26" value="" style="shape=tableRow;horizontal=0;startSize=0;swimlaneHead=0;swimlaneBody=0;top=0;left=0;bottom=0;right=0;collapsible=0;dropTarget=0;fillColor=none;points=[[0,0.5],[1,0.5]];portConstraint=eastwest;strokeColor=#6c8ebf;fontSize=16;" vertex="1" parent="y_QmLa2hbLG9c_GjuO9h-7">
          <mxGeometry y="61" width="590" height="60" as="geometry" />
        </mxCell>
        <mxCell id="y_QmLa2hbLG9c_GjuO9h-27" value="&lt;font color=&quot;#000000&quot;&gt;&lt;b&gt;提起中断&lt;br&gt;触发类型&lt;/b&gt;&lt;/font&gt;" style="shape=partialRectangle;html=1;whiteSpace=wrap;connectable=0;fillColor=none;top=0;left=0;bottom=0;right=0;overflow=hidden;pointerEvents=1;strokeColor=#666666;fontSize=16;fontColor=#333333;" vertex="1" parent="y_QmLa2hbLG9c_GjuO9h-26">
          <mxGeometry width="110" height="60" as="geometry">
            <mxRectangle width="110" height="60" as="alternateBounds" />
          </mxGeometry>
        </mxCell>
        <mxCell id="y_QmLa2hbLG9c_GjuO9h-28" value="u32 &lt;b&gt;irqd_get_trigger_type&lt;/b&gt;(struct irq_data *d);" style="shape=partialRectangle;html=1;whiteSpace=wrap;connectable=0;fillColor=none;top=0;left=0;bottom=0;right=0;align=left;spacingLeft=6;overflow=hidden;strokeColor=#6c8ebf;fontSize=16;" vertex="1" parent="y_QmLa2hbLG9c_GjuO9h-26">
          <mxGeometry x="110" width="480" height="60" as="geometry">
            <mxRectangle width="480" height="60" as="alternateBounds" />
          </mxGeometry>
        </mxCell>
        <mxCell id="y_QmLa2hbLG9c_GjuO9h-29" value="&lt;h1&gt;&lt;font style=&quot;font-size: 16px;&quot;&gt;&lt;font style=&quot;&quot;&gt;of函数获取中断资源&lt;/font&gt;&lt;/font&gt;&lt;/h1&gt;" style="rounded=0;whiteSpace=wrap;html=1;fillColor=#dae8fc;strokeColor=#6c8ebf;" vertex="1" parent="1">
          <mxGeometry x="1065" y="760" width="590" height="29" as="geometry" />
        </mxCell>
        <mxCell id="y_QmLa2hbLG9c_GjuO9h-30" value="&lt;b&gt;node：&lt;/b&gt;中断设备节点，&lt;b&gt;index：&lt;/b&gt;中断号在中断数组的位置&lt;br&gt;&lt;b&gt;返回值：&lt;/b&gt;成功-中断号，失败-0" style="text;html=1;align=left;verticalAlign=middle;whiteSpace=wrap;rounded=0;fillColor=#dae8fc;strokeColor=#6c8ebf;dashed=1;fontSize=14;" vertex="1" parent="1">
          <mxGeometry x="1705" y="792.25" width="360" height="54.5" as="geometry" />
        </mxCell>
        <mxCell id="y_QmLa2hbLG9c_GjuO9h-32" value="&lt;b&gt;d：&lt;/b&gt;中断数据结构（irq_data）&lt;br&gt;&lt;b&gt;返回值：&lt;/b&gt;u32整型，成功获取的中断触发类型" style="text;html=1;align=left;verticalAlign=middle;whiteSpace=wrap;rounded=0;fillColor=#dae8fc;strokeColor=#6c8ebf;dashed=1;fontSize=14;" vertex="1" parent="1">
          <mxGeometry x="1705" y="852.5" width="360" height="55" as="geometry" />
        </mxCell>
        <mxCell id="y_QmLa2hbLG9c_GjuO9h-44" style="edgeStyle=orthogonalEdgeStyle;rounded=0;orthogonalLoop=1;jettySize=auto;html=1;entryX=0;entryY=0.5;entryDx=0;entryDy=0;" edge="1" parent="1" source="y_QmLa2hbLG9c_GjuO9h-23" target="y_QmLa2hbLG9c_GjuO9h-30">
          <mxGeometry relative="1" as="geometry" />
        </mxCell>
        <mxCell id="y_QmLa2hbLG9c_GjuO9h-45" style="edgeStyle=orthogonalEdgeStyle;rounded=0;orthogonalLoop=1;jettySize=auto;html=1;entryX=0;entryY=0.5;entryDx=0;entryDy=0;" edge="1" parent="1" source="y_QmLa2hbLG9c_GjuO9h-26" target="y_QmLa2hbLG9c_GjuO9h-32">
          <mxGeometry relative="1" as="geometry" />
        </mxCell>
        <mxCell id="y_QmLa2hbLG9c_GjuO9h-46" value="&lt;font style=&quot;font-size: 20px;&quot;&gt;🌻Make By Dakkk&lt;/font&gt;" style="html=1;shadow=0;dashed=0;shape=mxgraph.bootstrap.rrect;rSize=5;strokeColor=#1CA5B8;strokeWidth=1;fillColor=none;fontColor=#1CA5B8;whiteSpace=wrap;align=center;verticalAlign=middle;spacingLeft=0;fontStyle=1;fontSize=16;spacing=5;" vertex="1" parent="1">
          <mxGeometry x="850" y="414.81" width="111.67" height="70.39" as="geometry" />
        </mxCell>
        <mxCell id="y_QmLa2hbLG9c_GjuO9h-47" value="&lt;font style=&quot;font-size: 20px;&quot;&gt;🌻Make By Dakkk&lt;/font&gt;" style="html=1;shadow=0;dashed=0;shape=mxgraph.bootstrap.rrect;rSize=5;strokeColor=#1CA5B8;strokeWidth=1;fillColor=none;fontColor=#1CA5B8;whiteSpace=wrap;align=center;verticalAlign=middle;spacingLeft=0;fontStyle=1;fontSize=16;spacing=5;" vertex="1" parent="1">
          <mxGeometry x="1309.17" y="347.61" width="111.67" height="70.39" as="geometry" />
        </mxCell>
      </root>
    </mxGraphModel>
  </diagram>
</mxfile>
